<?xml version="1.0" encoding="UTF-8"?>
<svg version="1.1" xmlns="http://www.w3.org/2000/svg" width="512" height="512">
<path d="M0 0 C52.33520468 -1.12791389 100.97391738 19.82220687 138.57421875 55.41796875 C143.27783765 60.00340627 147.40704829 64.73299634 151.15625 70.12890625 C155.74094276 67.10566682 160.27577187 64.04492007 164.71875 60.81640625 C203.04154177 33.98452886 254.48199891 22.27554942 300.6640625 29.68359375 C321.03225831 33.32305194 354.38953099 39.6778514 368.15625 57.12890625 C368.65795898 60.43432617 368.65795898 60.43432617 368.65234375 64.359375 C368.65515854 65.06253342 368.65797333 65.76569183 368.66087341 66.49015808 C368.66164127 68.76636231 368.63022779 71.04051427 368.59375 73.31640625 C368.58659973 74.09066956 368.57944946 74.86493286 368.57208252 75.66265869 C368.46462046 86.75314674 368.05156723 97.36706674 365.15625 108.12890625 C364.95757324 108.89734863 364.75889648 109.66579102 364.55419922 110.45751953 C353.39840319 153.03338528 326.62212856 190.26686057 291.15625 216.12890625 C290.11082031 216.89589844 289.06539063 217.66289062 287.98828125 218.453125 C249.09887496 246.13465271 201.9420722 261.81018807 154.11328125 254.04296875 C142.99705216 252.08265107 132.60125759 248.35288456 122.15625 244.12890625 C121.20878906 243.74992188 120.26132813 243.3709375 119.28515625 242.98046875 C118.58261719 242.69945312 117.88007813 242.4184375 117.15625 242.12890625 C113.36216628 249.40299392 110.2175712 256.70874993 107.67578125 264.51171875 C107.46250183 265.16032364 107.24922241 265.80892853 107.02947998 266.47718811 C105.94880089 269.77539327 104.89844812 273.07962437 103.88525391 276.39916992 C103.48870605 277.62611572 103.0921582 278.85306152 102.68359375 280.1171875 C102.34062256 281.22618408 101.99765137 282.33518066 101.64428711 283.4777832 C100.15625 286.12890625 100.15625 286.12890625 97.24829102 287.69213867 C94.15625 288.12890625 94.15625 288.12890625 91.77954102 287.03515625 C90.15625 285.12890625 90.15625 285.12890625 89.85913086 283.03515625 C90.7505709 276.42414572 92.44752167 270.39447457 94.71875 264.12890625 C95.0686499 263.13648926 95.4185498 262.14407227 95.77905273 261.12158203 C98.40053055 253.83236705 101.37915119 246.74936358 104.80493164 239.80078125 C106.28905296 236.68985596 107.20248194 234.61402492 106.87109375 231.13671875 C106.63519531 230.47414063 106.39929688 229.8115625 106.15625 229.12890625 C104.87234375 229.09152344 103.5884375 229.05414063 102.265625 229.015625 C55.26297298 227.38340163 10.6926498 211.59716601 -24.84375 180.12890625 C-26.02324219 179.11183594 -26.02324219 179.11183594 -27.2265625 178.07421875 C-29.81198279 175.8047019 -32.33484387 173.48280812 -34.84375 171.12890625 C-35.36839844 170.63825684 -35.89304688 170.14760742 -36.43359375 169.64208984 C-66.1752679 141.59184462 -89.89383924 100.98679392 -92.03662109 59.38427734 C-92.10816838 55.84810672 -92.16546171 52.31310268 -92.19384766 48.77636719 C-92.21049016 47.25765752 -92.23788829 45.73902876 -92.27587891 44.22070312 C-92.33071702 42.01001178 -92.35251496 39.80112377 -92.3671875 37.58984375 C-92.38700684 36.27806152 -92.40682617 34.9662793 -92.42724609 33.61474609 C-91.69686562 29.25141038 -90.2242926 27.88190991 -86.84375 25.12890625 C-61.31397024 7.7977143 -30.32031731 1.37440999 0 0 Z " fill="#00B87B" transform="translate(117.84375,111.87109375)"/>
<path d="M0 0 C1.20848099 0.00131424 1.20848099 0.00131424 2.44137573 0.00265503 C29.13319118 0.09794408 53.48553562 5.94540811 77.17285156 18.45019531 C78.87687833 19.34322982 80.62997301 20.14064255 82.3828125 20.93359375 C85.32859865 23.74875635 85.36268935 24.39691861 85.59375 28.3046875 C85.57565379 30.28706003 85.52165585 32.26933191 85.4375 34.25 C85.40027832 35.80666382 85.40027832 35.80666382 85.36230469 37.39477539 C85.12204482 45.17955922 84.5160316 52.73635857 82.9375 60.375 C82.69257813 61.58414063 82.44765625 62.79328125 82.1953125 64.0390625 C71.43168893 111.57046217 39.57146982 151.94013416 -1.25195312 177.75976562 C-28.91624754 194.78213572 -60.07248718 206.79654036 -92.89111328 206.69067383 C-94.92925598 206.68751279 -96.9659411 206.71109244 -99.00390625 206.73632812 C-116.59615317 206.8203256 -135.05652414 202.92888955 -150.0625 193.375 C-151.0625 190.375 -151.0625 190.375 -149.61328125 187.36328125 C-148.88081983 186.12982301 -148.13353801 184.9050956 -147.375 183.6875 C-146.97071777 183.02830566 -146.56643555 182.36911133 -146.14990234 181.68994141 C-132.97032559 160.62548772 -115.92643054 140.54408332 -97.0625 124.375 C-96.11246094 123.53710938 -95.16242188 122.69921875 -94.18359375 121.8359375 C-81.45474162 110.71060855 -67.70460269 100.84147362 -53.00927734 92.48291016 C-51.66496174 91.71786072 -50.32434999 90.94627914 -48.98681641 90.16943359 C-25.96163051 76.79677294 -1.22694448 66.36732908 24.63330078 59.87011719 C28.68241399 58.8811442 28.68241399 58.8811442 31.9375 56.375 C32.10431109 53.29152174 32.10431109 53.29152174 31.9375 50.375 C24.30078994 50.80197114 17.40995386 52.07028926 10.125 54.375 C9.13580566 54.68332764 8.14661133 54.99165527 7.12744141 55.30932617 C-3.52896127 58.716297 -13.83399772 62.85564539 -24.0625 67.375 C-25.37299316 67.95290283 -25.37299316 67.95290283 -26.70996094 68.54248047 C-47.11299002 77.65138207 -66.17792104 88.99340506 -84.0625 102.375 C-84.68060547 102.83616211 -85.29871094 103.29732422 -85.93554688 103.77246094 C-94.81519926 110.44878442 -103.07556716 117.65934529 -111.0625 125.375 C-112.12355957 126.3952124 -112.12355957 126.3952124 -113.20605469 127.43603516 C-122.96733197 136.86582097 -132.0882815 146.38359503 -140.0625 157.375 C-140.49498047 157.96265137 -140.92746094 158.55030273 -141.37304688 159.15576172 C-146.91993936 166.70026857 -152.14733059 174.40005625 -157.0625 182.375 C-159.77102144 179.66647856 -160.20083915 176.67938415 -161.0625 173.0625 C-161.23620117 172.33683838 -161.40990234 171.61117676 -161.58886719 170.86352539 C-162.09460883 168.70368595 -162.58238568 166.5406659 -163.0625 164.375 C-163.29453125 163.33859375 -163.5265625 162.3021875 -163.765625 161.234375 C-166.76252629 145.22235955 -166.05406571 128.11593253 -162.0625 112.375 C-161.81306641 111.35164551 -161.81306641 111.35164551 -161.55859375 110.30761719 C-153.3242954 77.08069846 -130.40771708 48.97866276 -102.0625 30.375 C-101.46646973 29.9826416 -100.87043945 29.5902832 -100.25634766 29.18603516 C-83.49052529 18.31668654 -65.19101985 10.2959264 -45.875 5.25 C-44.96169922 4.99863281 -44.04839844 4.74726563 -43.10742188 4.48828125 C-28.8861648 0.7494511 -14.62384592 -0.03919993 0 0 Z " fill="#00E398" transform="translate(391.0625,150.625)"/>
<path d="M0 0 C52.33520468 -1.12791389 100.97391738 19.82220687 138.57421875 55.41796875 C143.27783765 60.00340627 147.40704829 64.73299634 151.15625 70.12890625 C155.74094276 67.10566682 160.27577187 64.04492007 164.71875 60.81640625 C203.04154177 33.98452886 254.48199891 22.27554942 300.6640625 29.68359375 C321.03225831 33.32305194 354.38953099 39.6778514 368.15625 57.12890625 C368.65795898 60.43432617 368.65795898 60.43432617 368.65234375 64.359375 C368.65515854 65.06253342 368.65797333 65.76569183 368.66087341 66.49015808 C368.66164127 68.76636231 368.63022779 71.04051427 368.59375 73.31640625 C368.58659973 74.09066956 368.57944946 74.86493286 368.57208252 75.66265869 C368.46462046 86.75314674 368.05156723 97.36706674 365.15625 108.12890625 C364.95757324 108.89734863 364.75889648 109.66579102 364.55419922 110.45751953 C353.39840319 153.03338528 326.62212856 190.26686057 291.15625 216.12890625 C290.11082031 216.89589844 289.06539063 217.66289062 287.98828125 218.453125 C249.09887496 246.13465271 201.9420722 261.81018807 154.11328125 254.04296875 C142.99705216 252.08265107 132.60125759 248.35288456 122.15625 244.12890625 C121.20878906 243.74992188 120.26132813 243.3709375 119.28515625 242.98046875 C118.58261719 242.69945312 117.88007813 242.4184375 117.15625 242.12890625 C113.36216628 249.40299392 110.2175712 256.70874993 107.67578125 264.51171875 C107.46250183 265.16032364 107.24922241 265.80892853 107.02947998 266.47718811 C105.94880089 269.77539327 104.89844812 273.07962437 103.88525391 276.39916992 C103.48870605 277.62611572 103.0921582 278.85306152 102.68359375 280.1171875 C102.34062256 281.22618408 101.99765137 282.33518066 101.64428711 283.4777832 C100.15625 286.12890625 100.15625 286.12890625 97.24829102 287.69213867 C94.15625 288.12890625 94.15625 288.12890625 91.77954102 287.03515625 C90.15625 285.12890625 90.15625 285.12890625 89.85913086 283.03515625 C90.7505709 276.42414572 92.44752167 270.39447457 94.71875 264.12890625 C95.0686499 263.13648926 95.4185498 262.14407227 95.77905273 261.12158203 C98.40053055 253.83236705 101.37915119 246.74936358 104.80493164 239.80078125 C106.28905296 236.68985596 107.20248194 234.61402492 106.87109375 231.13671875 C106.63519531 230.47414063 106.39929688 229.8115625 106.15625 229.12890625 C104.87234375 229.09152344 103.5884375 229.05414063 102.265625 229.015625 C55.26297298 227.38340163 10.6926498 211.59716601 -24.84375 180.12890625 C-26.02324219 179.11183594 -26.02324219 179.11183594 -27.2265625 178.07421875 C-29.81198279 175.8047019 -32.33484387 173.48280812 -34.84375 171.12890625 C-35.36839844 170.63825684 -35.89304688 170.14760742 -36.43359375 169.64208984 C-66.1752679 141.59184462 -89.89383924 100.98679392 -92.03662109 59.38427734 C-92.10816838 55.84810672 -92.16546171 52.31310268 -92.19384766 48.77636719 C-92.21049016 47.25765752 -92.23788829 45.73902876 -92.27587891 44.22070312 C-92.33071702 42.01001178 -92.35251496 39.80112377 -92.3671875 37.58984375 C-92.38700684 36.27806152 -92.40682617 34.9662793 -92.42724609 33.61474609 C-91.69686562 29.25141038 -90.2242926 27.88190991 -86.84375 25.12890625 C-61.31397024 7.7977143 -30.32031731 1.37440999 0 0 Z M-31.84375 14.12890625 C-33.18812237 14.42497844 -34.53319981 14.7178643 -35.87890625 15.0078125 C-52.46391879 18.70523423 -67.02638988 26.03448194 -81.84375 34.12890625 C-82.79883175 64.78703043 -77.55196456 91.12861094 -62.84375 118.12890625 C-62.30234375 119.14984375 -61.7609375 120.17078125 -61.203125 121.22265625 C-53.64339439 134.87420861 -43.66174186 146.95290891 -32.84375 158.12890625 C-31.48443359 159.54816406 -31.48443359 159.54816406 -30.09765625 160.99609375 C-8.69717515 182.91261482 17.42800289 198.7981225 46.15625 209.12890625 C47.29191406 209.53753906 48.42757812 209.94617188 49.59765625 210.3671875 C52.76382728 211.41449056 55.92494716 212.30357919 59.15625 213.12890625 C59.85057129 213.309375 60.54489258 213.48984375 61.26025391 213.67578125 C75.27482769 217.21303458 88.75322079 217.61373116 103.15625 217.12890625 C102.66826974 213.49037382 102.11492985 209.91995045 101.40234375 206.31640625 C97.43507183 186.22681654 97.24139617 163.97803358 103.66796875 144.36328125 C104.24029866 141.74429959 104.26061384 140.57602083 103.15625 138.12890625 C101.00716512 135.98264619 101.00716512 135.98264619 98.28125 133.94140625 C97.39695313 133.24660156 96.51265625 132.55179687 95.6015625 131.8359375 C94.82607056 131.23422729 94.82607056 131.23422729 94.03491211 130.62036133 C92.57990595 129.46524338 91.14428442 128.28568601 89.71704102 127.09643555 C83.32753793 121.7728947 76.77569317 116.90902072 69.84375 112.31640625 C68.80831055 111.6298999 67.77287109 110.94339355 66.70605469 110.23608398 C56.51092826 103.56831002 46.0311716 97.61086007 35.15625 92.12890625 C34.38555176 91.73687012 33.61485352 91.34483398 32.82080078 90.94091797 C21.25946715 85.15399096 9.1737245 80.88752994 -3.03125 76.69140625 C-4.17912491 76.29598633 -4.17912491 76.29598633 -5.35018921 75.89257812 C-13.10143875 73.23575596 -20.77488489 70.65495435 -28.84375 69.12890625 C-28.96875 66.25390625 -28.96875 66.25390625 -28.84375 63.12890625 C-28.18375 62.46890625 -27.52375 61.80890625 -26.84375 61.12890625 C18.41899672 64.83569495 72.32111846 97.30916697 104.46484375 127.9765625 C105.02300781 128.35683594 105.58117187 128.73710937 106.15625 129.12890625 C109.47480462 128.39838058 109.47480462 128.39838058 110.91796875 124.953125 C111.56676891 123.57743929 112.20824634 122.19828466 112.84375 120.81640625 C118.49928175 109.05379023 125.77225865 99.1045952 134.15625 89.12890625 C134.8471875 88.2471875 135.538125 87.36546875 136.25 86.45703125 C138.31530983 83.93464465 140.55457153 82.0801651 143.15625 80.12890625 C140.85708842 66.48928554 121.91065915 53.37367123 111.12207031 45.51269531 C98.91060434 36.91674535 85.84047682 30.05505209 72.15625 24.12890625 C71.14812256 23.69022217 71.14812256 23.69022217 70.11962891 23.24267578 C61.9986789 19.7809194 53.7512987 17.37544358 45.15625 15.37890625 C43.87657349 15.08064941 43.87657349 15.08064941 42.57104492 14.77636719 C29.01857313 11.81132692 15.55588177 10.74474777 1.71875 10.81640625 C0.63981979 10.81864197 0.63981979 10.81864197 -0.46090698 10.82092285 C-11.22336151 10.86091589 -21.36563291 11.50091779 -31.84375 14.12890625 Z M226.46875 44.19140625 C225.36297607 44.49377197 224.25720215 44.7961377 223.11791992 45.10766602 C212.35303872 48.16865608 202.22859886 52.2794967 192.15625 57.12890625 C191.47030762 57.4547168 190.78436523 57.78052734 190.07763672 58.11621094 C174.39354463 65.67056525 160.57295229 75.99280741 148.15625 88.12890625 C146.75632812 89.43601562 146.75632812 89.43601562 145.328125 90.76953125 C123.45868211 111.66156887 109.0888302 141.79036647 107.91796875 172.1328125 C107.589785 188.77127907 108.81011112 205.58177518 115.15625 221.12890625 C118.45198776 217.14496339 121.33711372 212.97452799 124.21875 208.69140625 C139.82827352 185.79252977 158.99517442 163.88860547 181.15625 147.12890625 C182.34162752 146.20374183 183.52648614 145.27791234 184.7109375 144.3515625 C215.04326344 120.86773094 265.16485284 87.73315187 305.15625 89.12890625 C305.28125 92.00390625 305.28125 92.00390625 305.15625 95.12890625 C302.87279522 97.41236103 301.63293423 97.71487916 298.5546875 98.5390625 C297.60182861 98.80178955 296.64896973 99.0645166 295.66723633 99.33520508 C294.63236084 99.61775146 293.59748535 99.90029785 292.53125 100.19140625 C244.30103303 113.8652765 202.37960819 138.79902646 165.78125 172.81640625 C164.79995117 173.72483276 164.79995117 173.72483276 163.79882812 174.65161133 C159.27786457 178.90240007 155.1621054 183.39253699 151.15625 188.12890625 C150.63708008 188.73661865 150.11791016 189.34433105 149.58300781 189.97045898 C140.94522595 200.1566004 133.26847821 210.82747312 126.15625 222.12890625 C125.51453857 223.08966064 125.51453857 223.08966064 124.85986328 224.06982422 C122.64317484 227.44996657 122.64317484 227.44996657 122.484375 231.3515625 C132.74950538 242.26425952 156.07177371 245.08362338 170.046875 245.5390625 C184.19528605 245.87429483 198.38364814 245.65428359 212.15625 242.12890625 C212.92727051 241.93554688 213.69829102 241.7421875 214.49267578 241.54296875 C265.85289325 228.27021863 310.30140884 194.61444758 337.35205078 149.11767578 C353.14446481 121.78891309 358.6817292 93.40704521 358.15625 62.12890625 C348.79160918 56.41513966 339.31819279 51.77037444 329.06640625 47.85888672 C327.44364282 47.23873556 325.83009171 46.59456322 324.21875 45.9453125 C307.78558186 39.80675987 290.57443419 38.75129425 273.21875 38.75390625 C272.44177765 38.75209351 271.6648053 38.75028076 270.86428833 38.74841309 C255.70366099 38.75241658 241.14683201 40.14335546 226.46875 44.19140625 Z " fill="#000302" transform="translate(117.84375,111.87109375)"/>
</svg>
