<?xml version="1.0" encoding="UTF-8"?>
<svg version="1.1" xmlns="http://www.w3.org/2000/svg" width="512" height="512">
<path d="M0 0 C-1.3156387 2.75236947 -2.7738496 5.25465557 -4.50390625 7.765625 C-4.9927832 8.48242432 -5.48166016 9.19922363 -5.98535156 9.93774414 C-6.50581055 10.70078857 -7.02626953 11.46383301 -7.5625 12.25 C-13.18160028 20.60196504 -18.33284498 29.0819258 -23 38 C-23.33451172 38.63099609 -23.66902344 39.26199219 -24.01367188 39.91210938 C-40.03350453 70.54652621 -47.47907498 105.64828764 -47.3125 140.0625 C-47.31034485 140.86981567 -47.3081897 141.67713135 -47.30596924 142.50891113 C-47.09140593 192.83082762 -30.57649646 241.61189641 1 281 C1.78117188 281.98484375 2.56234375 282.9696875 3.3671875 283.984375 C16.0602409 299.65548032 30.56897545 313.341506 47 325 C47.87277588 325.63977783 47.87277588 325.63977783 48.76318359 326.29248047 C96.51415496 361.2656072 156.50198781 372.10182559 214.22265625 364.36376953 C218.14267399 363.85033542 222.06915362 363.42174706 226 363 C224.49362437 368.43559317 220.75108647 371.80815182 216.9375 375.75 C216.25719727 376.4622876 215.57689453 377.1745752 214.87597656 377.90844727 C212.92452025 379.94605187 210.9631012 381.97362399 209 384 C207.71029297 385.35158203 207.71029297 385.35158203 206.39453125 386.73046875 C200.97446719 392.30849461 195.1332779 397.22441039 189 402 C188.4829248 402.40943848 187.96584961 402.81887695 187.43310547 403.24072266 C160.76132886 424.23662976 129.26209818 438.4992472 96.1875 445.8125 C95.30594238 446.0074707 94.42438477 446.20244141 93.51611328 446.40332031 C79.19023199 449.38470211 65.16733272 450.3505375 50.57495117 450.31567383 C47.83276171 450.31252328 45.09166597 450.33604553 42.34960938 450.36132812 C25.46284238 450.42260271 8.96658059 448.37091952 -7.4375 444.3125 C-8.47261719 444.05903809 -9.50773438 443.80557617 -10.57421875 443.54443359 C-58.84646731 431.27768994 -103.90838212 401.8006057 -133.70898438 361.73535156 C-134.55007113 360.60478336 -135.39744514 359.47885704 -136.25195312 358.35839844 C-172.88105943 310.3226053 -186.58864234 248.44111364 -178.60498047 189.06201172 C-172.28761436 146.37769909 -154.19404487 106.64301342 -126 74 C-125.30777344 73.19691406 -124.61554688 72.39382812 -123.90234375 71.56640625 C-114.05378448 60.39517296 -103.68390412 50.17890626 -91.7265625 41.28662109 C-90.07614716 40.05674428 -88.44418228 38.80533894 -86.8125 37.55078125 C-64.44519263 20.66652354 -29.02951506 0 0 0 Z " fill="#FBD206" transform="translate(233,31)"/>
<path d="M0 0 C0 4.03458996 -2.02634281 5.98925249 -4.375 9.0625 C-10.42210451 17.27059804 -15.31118459 25.96065937 -20 35 C-20.39074707 35.74878418 -20.78149414 36.49756836 -21.18408203 37.26904297 C-47.74009914 88.80978116 -51.95254686 151.15442024 -34.86376953 206.33251953 C-23.69367621 240.82783883 -5.90274546 271.35735122 19.40722656 297.36035156 C20.8238038 298.81861838 22.22186915 300.29481656 23.6171875 301.7734375 C29.6707219 308.06514375 36.26922813 313.43526336 43.23388672 318.66943359 C44.87659896 319.90703129 46.50345445 321.16559952 48.12890625 322.42578125 C94.26346626 357.01254956 155.19019244 371.3218844 212.1875 363.875 C253.41277923 357.84494467 292.88870252 341.73809232 325 315 C326.16208984 314.05060547 326.16208984 314.05060547 327.34765625 313.08203125 C330.02324033 310.8569562 332.05730994 308.91403509 334 306 C334.66 306 335.32 306 336 306 C334.49362437 311.43559317 330.75108647 314.80815182 326.9375 318.75 C326.25719727 319.4622876 325.57689453 320.1745752 324.87597656 320.90844727 C322.92452025 322.94605187 320.9631012 324.97362399 319 327 C317.71029297 328.35158203 317.71029297 328.35158203 316.39453125 329.73046875 C310.97446719 335.30849461 305.1332779 340.22441039 299 345 C298.4829248 345.40943848 297.96584961 345.81887695 297.43310547 346.24072266 C270.76132886 367.23662976 239.26209818 381.4992472 206.1875 388.8125 C205.30594238 389.0074707 204.42438477 389.20244141 203.51611328 389.40332031 C189.19023199 392.38470211 175.16733272 393.3505375 160.57495117 393.31567383 C157.83276171 393.31252328 155.09166597 393.33604553 152.34960938 393.36132812 C135.46284238 393.42260271 118.96658059 391.37091952 102.5625 387.3125 C101.52738281 387.05903809 100.49226562 386.80557617 99.42578125 386.54443359 C51.15353269 374.27768994 6.09161788 344.8006057 -23.70898438 304.73535156 C-24.55007113 303.60478336 -25.39744514 302.47885704 -26.25195312 301.35839844 C-62.88105943 253.3226053 -76.58864234 191.44111364 -68.60498047 132.06201172 C-61.07930523 81.21356173 -36.77131094 35.7071894 0 0 Z " fill="#F9C301" transform="translate(123,88)"/>
</svg>
